<?xml version="1.0" encoding="utf-8"?>
<?xml-stylesheet type="text/xsl" href="rss1.xsl"?>
<rss version="2.0" xmlns:atom="http://www.w3.org/2005/Atom" xmlns:content="http://purl.org/rss/1.0/modules/content/" xmlns:dc="http://purl.org/dc/elements/1.1/" xmlns:media="http://search.yahoo.com/mrss/">
<channel>
 <title>Getty</title>
 <link>http://www.gettyimg.com/</link>
 <atom:link href="http://www.gettyimg.com/" rel="self" type="application/rss+xml" />

 
                <item>
                <title><![CDATA[【MASTER &amp; MASTER RIP】MASTER - DJ Snake &amp; Lil Jon - Turn Down for What (PCM Master-1080p)]]></title>
                <link><![CDATA[https://sharemania.us/threads/dj-snake-lil-jon-turn-down-for-what-pcm-master-1080p.221606/]]></link>
                <description><![CDATA[<article>
<blockquote class="messageText SelectQuoteContainer ugc baseHtml">
<img src="https://images2.imgbox.com/f2/20/Sg0u9bH3_o.jpg" class="bbCodeImage LbImage" alt="[​IMG]" data-url="https://images2.imgbox.com/f2/20/Sg0u9bH3_o.jpg" style=""><img src="https://images2.imgbox.com/d8/74/KeYQYjEJ_o.jpg" class="bbCodeImage LbImage" alt="[​IMG]" data-url="https://images2.imgbox.com/d8/74/KeYQYjEJ_o.jpg" style=""><br>
<div class="ToggleTriggerAnchor bbCodeSpoilerContainer">
<button type="button" class="button bbCodeSpoilerButton ToggleTrigger Tooltip JsOnly" data-target="> .SpoilerTarget"><span>Spoiler: <span class="SpoilerTitle">MediaInfo</span></span></button>
<div class="SpoilerTarget bbCodeSpoilerText">Format : MPEG-4<br>
Format profile : QuickTime<br>
Codec ID : qt 2005.03 (qt )<br>
File size : 527 MiB<br>
Duration : 3 min 33 s<br>
Overall bit rate : 20.7 Mb/s<br>
Encoded date : UTC 2014-03-07 04:14:01<br>
Tagged date : UTC 2014-03-07 04:32:59<br>
Writing library : Apple QuickTime 7.6.6<br>
com.apple.quicktime.player. : (Binary)<br>
Video<br>
ID : 2<br>
Format : AVC<br>
Format/Info : Advanced Video Codec<br>
Format profile : Main@L4.1<br>
Format settings : 2 Ref Frames<br>
Format settings, CABAC : No<br>
Format settings, Reference : 2 frames<br>
Format settings, GOP : M=2, N=24<br>
Codec ID : avc1<br>
Codec ID/Info : Advanced Video Coding<br>
Duration : 3 min 33 s<br>
Source duration : 4 min 14 s<br>
Bit rate : 16.9 Mb/s<br>
Width : 1 920 pixels<br>
Height : 818 pixels<br>
Display aspect ratio : 2.35:1<br>
Frame rate mode : Constant<br>
Frame rate : 23.976 (23976/1000) FPS<br>
Color space : YUV<br>
Chroma subsampling : 4:2:0<br>
Bit depth : 8 bits<br>
Scan type : Progressive<br>
Bits/(Pixel*Frame) : 0.448<br>
Stream size : 430 MiB (82%)<br>
Source stream size : 480 MiB (91%)<br>
Language : English<br>
Encoded date : UTC 2014-03-07 04:23:34<br>
Tagged date : UTC 2014-03-07 04:32:38<br>
Color range : Limited<br>
Color primaries : BT.709<br>
Transfer characteristics : BT.709<br>
Matrix coefficients : BT.709<br>
Codec configuration box : avcC<br>
Audio<br>
ID : 1<br>
Format : PCM<br>
Format settings : Little / Signed<br>
Codec ID : sowt<br>
Duration : 3 min 33 s<br>
Source duration : 4 min 14 s<br>
Bit rate mode : Constant<br>
Bit rate : 1 536 kb/s<br>
Channel(s) : 2 channels<br>
Channel layout : L R<br>
Sampling rate : 48.0 kHz<br>
Bit depth : 16 bits<br>
Stream size : 39.2 MiB (7%)<br>
Source stream size : 46.6 MiB (9%)<br>
Language : English<br>
Encoded date : UTC 2014-03-07 04:23:34<br>
Tagged date : UTC 2014-03-07 04:32:59</div>
</div>
<div class="bbCodeBlock bbCodeVfcHH HiddenContent">
<div class="attribution type">Hidden Content:</div>
<blockquote>You must either reply or click 'Like' to see the hidden information contained here.</blockquote>
</div>
<div class="messageTextEndMarker">&nbsp;</div>
</blockquote>
</article>]]></description>
                <author><![CDATA[ianarturis]]></author>
                </item>

                
                <item>
                <title><![CDATA[【Live Audios (lossy)】M4A - Lana Del Rey - Live at MITA Festival 2023 [REMASTERED]]]></title>
                <link><![CDATA[https://sharemania.us/threads/lana-del-rey-live-at-mita-festival-2023-remastered.221604/]]></link>
                <description><![CDATA[<article>
<blockquote class="messageText SelectQuoteContainer ugc baseHtml">
<div style="text-align: center"><img src="https://i.ibb.co/fGfzRxt/folder.png" class="bbCodeImage LbImage" alt="[​IMG]" data-url="https://i.ibb.co/fGfzRxt/folder.png" style=""><br>
<br>
<span style="font-family: 'Times New Roman'"><span style="color: #000000"><span style="font-size: 15px"><b>There are some glitches on Young &amp; Beautiful caused by live transmission </b></span></span></span><br>
<span style="font-size: 15px"><span style="font-family: 'Times New Roman'"><span style="color: rgb(0, 0, 0)"><br>
<div class="bbCodeBlock bbCodeVfcHH HiddenContent">
<div class="attribution type">Hidden Content:</div>
<blockquote>You must reply before you can see the hidden data contained here.</blockquote>
</div></span></span></span>​</div>
<div class="messageTextEndMarker">&nbsp;</div>
</blockquote>
</article>]]></description>
                <author><![CDATA[itschaotic]]></author>
                </item>

                </channel></rss>